<svg width="29" height="31" viewBox="0 0 29 31" fill="none" xmlns="http://www.w3.org/2000/svg">
<path d="M14.2004 9.74625V15.4129M14.2004 21.0796H14.2146M1.45044 9.6633V21.1625C1.45044 21.6479 1.45044 21.8907 1.52196 22.1071C1.58523 22.2986 1.68866 22.4744 1.82534 22.6227C1.97983 22.7904 2.19199 22.9082 2.61632 23.144L13.0996 28.968C13.5014 29.1912 13.7023 29.3028 13.915 29.3466C14.1033 29.3853 14.2975 29.3853 14.4858 29.3466C14.6986 29.3028 14.8995 29.1912 15.3012 28.968L25.7846 23.144C26.2089 22.9082 26.4211 22.7904 26.5755 22.6227C26.7122 22.4744 26.8156 22.2986 26.8789 22.1071C26.9504 21.8907 26.9504 21.6479 26.9504 21.1625V9.6633C26.9504 9.17789 26.9504 8.93518 26.8789 8.71872C26.8156 8.52722 26.7122 8.35144 26.5755 8.20313C26.4211 8.03548 26.2089 7.91761 25.7846 7.68188L15.3012 1.8578C14.8995 1.6346 14.6986 1.52299 14.4858 1.47924C14.2975 1.44051 14.1033 1.44051 13.915 1.47924C13.7023 1.52299 13.5014 1.6346 13.0996 1.8578L2.61632 7.68188C2.19199 7.91761 1.97983 8.03548 1.82534 8.20313C1.68866 8.35144 1.58523 8.52722 1.52196 8.71872C1.45044 8.93518 1.45044 9.17789 1.45044 9.6633Z" stroke="#FD0000" stroke-width="2.9" stroke-linecap="round" stroke-linejoin="round"/>
</svg>
